<svg width="200" height="200" viewBox="0 0 200 200" fill="none" xmlns="http://www.w3.org/2000/svg">
<circle cx="100" cy="100" r="100" fill="#C4C4C4"/>
<path d="M30.0106 74.9794C39.3309 67.105 53.444 68.1091 61.5341 77.2053C69.6243 86.3015 68.6411 100.06 59.3207 107.934C50.0004 115.809 35.8874 114.805 27.7972 105.709C19.707 96.6123 20.6902 82.8539 30.0106 74.9794Z" fill="#C4C4C4" stroke="#31353D" stroke-width="10"/>
<path d="M40.571 105.394L35.2804 97.2612L43.6089 92.1229L48.8995 100.256L40.571 105.394ZM38.3069 97.9266L41.2461 102.445L45.8731 99.5903L42.9338 95.0721L38.3069 97.9266ZM38.9933 81.0409L47.3218 75.9027L52.6125 84.0355L44.284 89.1738L38.9933 81.0409ZM49.586 83.3701L46.6467 78.8518L42.0198 81.7064L44.959 86.2246L49.586 83.3701ZM37.8935 89.3174L40.6696 87.6047L42.4332 90.3156L39.657 92.0284L37.8935 89.3174ZM48.2358 89.2683L49.9994 91.9793L47.2232 93.692L45.4597 90.9811L48.2358 89.2683Z" fill="#31353D"/>
<path d="M94.7613 141.831C104.082 133.956 118.195 134.96 126.285 144.056C134.375 153.153 133.392 166.911 124.071 174.785C114.751 182.66 100.638 181.656 92.5479 172.56C84.4578 163.463 85.441 149.705 94.7613 141.831Z" fill="#C4C4C4" stroke="#31353D" stroke-width="10"/>
<path d="M125.024 156.44L118.233 163.402L111.075 156.764L117.866 149.801L125.024 156.44ZM118.151 160.38L121.924 156.512L117.947 152.824L114.174 156.692L118.151 160.38ZM101.184 163.799L94.0259 157.161L100.817 150.198L107.975 156.836L101.184 163.799ZM100.898 153.221L97.1257 157.089L101.102 160.777L104.875 156.908L100.898 153.221ZM109.688 162.845L107.302 160.632L109.566 158.311L111.952 160.524L109.688 162.845ZM107.098 153.076L109.362 150.755L111.748 152.968L109.484 155.289L107.098 153.076Z" fill="#31353D"/>
<path d="M76.993 98.849C75.7911 98.4641 75.7719 97.8198 76.9987 97.3946L120.601 82.284C121.81 81.8659 122.513 82.5365 122.187 83.7286L110.198 127.651C109.869 128.868 109.17 128.917 108.642 127.772L100.179 109.32L113.722 90.8091L95.5378 104.788L76.993 98.849V98.849Z" fill="#31353D"/>
<path d="M127.679 45.5587C136.999 37.6842 151.112 38.6883 159.203 47.7845C167.293 56.8807 166.31 70.6392 156.989 78.5136C147.669 86.3881 133.556 85.3839 125.466 76.2877C117.375 67.1915 118.359 53.4331 127.679 45.5587Z" fill="#C4C4C4" stroke="#31353D" stroke-width="10"/>
<path d="M152.198 72.3126L142.356 71.6164L143.046 62.0216L152.888 62.7178L152.198 72.3126ZM144.696 69.6389L150.165 70.0257L150.548 64.6953L145.08 64.3085L144.696 69.6389ZM131.169 59.0384L131.859 49.4436L141.701 50.1398L141.012 59.7346L131.169 59.0384ZM139.361 52.1173L133.893 51.7305L133.509 57.0609L138.978 57.4477L139.361 52.1173ZM137.347 64.833L137.577 61.6347L140.858 61.8668L140.628 65.0651L137.347 64.833ZM143.429 56.6911L146.71 56.9232L146.48 60.1215L143.199 59.8894L143.429 56.6911Z" fill="#31353D"/>
</svg>
